<svg xmlns="http://www.w3.org/2000/svg" viewBox="0 0 241.497 51.299"><title>CorvusPay-logo-color</title><g id="Layer_2" data-name="Layer 2"><g id="Layer_1-2" data-name="Layer 1"><rect width="241.497" height="51.299" fill="none"/><path d="M187.366,17.215a11.349,11.349,0,0,1-.748,4.1,8.543,8.543,0,0,1-2.157,3.252,14.4,14.4,0,0,1-1.9,1.494,11.651,11.651,0,0,1-2.281,1.16,15.519,15.519,0,0,1-2.713.746,18.279,18.279,0,0,1-3.282.27h-4.45V38.33h-8.492V7.477h13.124a22.866,22.866,0,0,1,5.054.487,12.723,12.723,0,0,1,3.846,1.544,8.014,8.014,0,0,1,2.954,3.1A9.61,9.61,0,0,1,187.366,17.215Zm-8.72.187a3.74,3.74,0,0,0-.68-2.249,3.507,3.507,0,0,0-1.636-1.294,7.594,7.594,0,0,0-2.3-.549q-1.1-.072-2.985-.073h-1.2v9.241h.591c.8,0,1.557-.006,2.269-.02a13.471,13.471,0,0,0,1.863-.146,6.541,6.541,0,0,0,1.443-.4,3.876,3.876,0,0,0,1.167-.672,4.1,4.1,0,0,0,1.172-1.6A6.663,6.663,0,0,0,178.646,17.4Z" fill="#89b13f"/><path d="M237.441,15.061,224.567,46.867h-8.538l3.861-9.1-9.355-22.71h8.355l5.359,14.588,5.017-14.588Z" fill="#89b13f"/><path d="M207.524,16.4q-3.007-2-9.593-2a33.361,33.361,0,0,0-5.314.425,16.514,16.514,0,0,0-2.855.736l-.907,5.32h1.453a26.477,26.477,0,0,1,2.855-.9,13.891,13.891,0,0,1,3.292-.466,11.37,11.37,0,0,1,4.666.736,2.685,2.685,0,0,1,1.555,2.661v.124q-3.451.207-6.447.582a18.387,18.387,0,0,0-5.156,1.325,7.639,7.639,0,0,0-3.269,2.529,7.063,7.063,0,0,0-1.135,4.185,6.819,6.819,0,0,0,2.236,5.223,7.962,7.962,0,0,0,5.62,2.071,12.45,12.45,0,0,0,2.828-.25,12.09,12.09,0,0,0,2.076-.725,8.994,8.994,0,0,0,1.737-.994c.432-.332.92-.7,1.465-1.118V38.33h7.9V22.5A6.827,6.827,0,0,0,207.524,16.4ZM202.631,32.26a6.644,6.644,0,0,1-1.976,1.221,5.749,5.749,0,0,1-2.134.436,5.386,5.386,0,0,1-2.849-.611,2.455,2.455,0,0,1-.966-2.249,2.661,2.661,0,0,1,.58-1.792,3.461,3.461,0,0,1,1.624-1.006,12.106,12.106,0,0,1,2.451-.526c.834-.092,1.922-.2,3.27-.324Z" fill="#89b13f"/><path d="M58.914,26.55q0,5.738-3.441,9.043T45.745,38.9q-6.244,0-9.707-3.307T32.575,26.55q0-5.8,3.463-9.087t9.707-3.285q6.267,0,9.717,3.307T58.914,26.55Zm-8.15.04a13.382,13.382,0,0,0-.376-3.449,6.1,6.1,0,0,0-1.032-2.207,3.826,3.826,0,0,0-1.589-1.212,5.584,5.584,0,0,0-2.022-.341,5.857,5.857,0,0,0-1.931.3,3.733,3.733,0,0,0-1.589,1.149,6.042,6.042,0,0,0-1.089,2.216,12.958,12.958,0,0,0-.409,3.544,12.651,12.651,0,0,0,.385,3.45,6.354,6.354,0,0,0,1,2.1A3.722,3.722,0,0,0,43.7,33.325a5.757,5.757,0,0,0,2.113.374,5.466,5.466,0,0,0,1.942-.374,3.547,3.547,0,0,0,1.577-1.12A6.162,6.162,0,0,0,50.4,30.063,13.04,13.04,0,0,0,50.764,26.59Z" fill="#354554"/><path d="M104.6,14.854l-9.15,23.269H86.774L77.692,14.854h8.357l5.221,15.4,5.154-15.4Z" fill="#354554"/><path d="M130.512,38.123h-7.948V35.555a21.8,21.8,0,0,1-3.792,2.393,9.516,9.516,0,0,1-4.109.819,7.857,7.857,0,0,1-5.915-2.187q-2.121-2.186-2.123-6.579V14.854h7.992V26.4q0,1.8.1,2.943a5.509,5.509,0,0,0,.488,1.927,2.393,2.393,0,0,0,1.123,1.1,4.911,4.911,0,0,0,2.123.374,6.568,6.568,0,0,0,1.987-.374,8.783,8.783,0,0,0,2.123-1.015V14.854h7.948Z" fill="#354554"/><path d="M153.421,26.7a8.852,8.852,0,0,0-4.167-2.374,19.813,19.813,0,0,0-2.556-.59q-1.326-.216-2.348-.445a7.385,7.385,0,0,1-2.566-.893,1.483,1.483,0,0,1-.592-1.242q0-.891,1.193-1.43a7.087,7.087,0,0,1,2.918-.538,11.93,11.93,0,0,1,2.533.268,13.453,13.453,0,0,1,2.236.684,18.584,18.584,0,0,1,1.724.84c.243.133.451.253.64.364h1.291V15.868a19.833,19.833,0,0,0-3.792-1.17,23.263,23.263,0,0,0-4.928-.487,18.937,18.937,0,0,0-5.051.62,12.4,12.4,0,0,0-3.758,1.678,7.712,7.712,0,0,0-2.3,2.458,5.824,5.824,0,0,0-.783,2.931,6.278,6.278,0,0,0,1.51,4.384,9.382,9.382,0,0,0,4.506,2.516,21.862,21.862,0,0,0,2.451.55c.925.159,1.688.308,2.295.445a7.011,7.011,0,0,1,2.293.788,1.4,1.4,0,0,1,.591,1.222q0,1.035-1.283,1.512a8.482,8.482,0,0,1-2.963.478,12.73,12.73,0,0,1-3.032-.343,16.121,16.121,0,0,1-2.508-.819,11.664,11.664,0,0,1-2.022-.994c-.288-.189-.552-.364-.8-.534H133v5.8a21.307,21.307,0,0,0,4.143,1.307,24.56,24.56,0,0,0,5.325.558,20.371,20.371,0,0,0,5.3-.6,12.893,12.893,0,0,0,3.849-1.7,7.245,7.245,0,0,0,2.384-2.5,6.227,6.227,0,0,0,.84-3.12A5.946,5.946,0,0,0,153.421,26.7Z" fill="#354554"/><path d="M76.765,21.6h1.344l-2.7-6.7-1.018.258a10.208,10.208,0,0,0-2.009.819,15.01,15.01,0,0,0-1.76,1.109c-.643.462-1.147.848-1.51,1.15V14.9H61.161v23.27h7.947V22.593a27.109,27.109,0,0,1,2.669-.788,11.131,11.131,0,0,1,2.623-.331c.694,0,1.332.023,1.905.071C76.479,21.56,76.616,21.581,76.765,21.6Z" fill="#354554"/><path d="M4.864,21.03a15.7,15.7,0,0,0-.2,5.565A16.825,16.825,0,0,0,19.314,40.833a17.442,17.442,0,0,0,13.76-4.058l.032-.027c-.01-.011-.022-.023-.035-.035-1.98-1.964-3.9-3.911-5.714-5.786l-.062-.06-.087.065a8.812,8.812,0,0,1-8.987,1.33,8.234,8.234,0,0,1-4.185-3.68A8.362,8.362,0,0,1,13.628,21a8.509,8.509,0,0,1,4.345-4.322,16.664,16.664,0,0,0-1.849-.144q-.15,0-.3,0c-.322,0-.643.011-.957.032a15.919,15.919,0,0,0-9.722,4.053A.718.718,0,0,0,4.864,21.03Z" fill="#89b13f"/><path d="M19.155,8.212a17.039,17.039,0,0,0-13.212,9.38,19.141,19.141,0,0,1,9.662-2.974c.133,0,.266,0,.4,0a19.366,19.366,0,0,1,11.012,3.579l.022.016.059-.059c1.8-1.852,3.73-3.824,5.708-5.785.034-.034.06-.062.08-.085-.024-.024-.056-.054-.1-.088A17.4,17.4,0,0,0,19.155,8.212Z" fill="#354554"/></g></g></svg>