<?xml version="1.0" standalone="no"?>
<!DOCTYPE svg PUBLIC "-//W3C//DTD SVG 20010904//EN"
 "http://www.w3.org/TR/2001/REC-SVG-20010904/DTD/svg10.dtd">
<svg version="1.0" xmlns="http://www.w3.org/2000/svg"
 width="320.000000pt" height="126.000000pt" viewBox="0 0 320.000000 126.000000"
 preserveAspectRatio="xMidYMid meet">

<g transform="translate(0.000000,126.000000) scale(0.100000,-0.100000)"
fill="#000000" stroke="none">
<path d="M1095 1000 c-169 -9 -235 -30 -307 -98 -45 -42 -55 -46 -141 -62
l-92 -18 83 -1 c45 -1 82 -3 82 -6 0 -5 -32 -77 -38 -85 -2 -3 -94 -12 -205
-21 l-202 -16 198 -2 197 -1 -6 -27 c-4 -16 -12 -46 -18 -68 l-12 -40 -129
-16 -130 -16 126 -2 127 -1 -34 -132 c-18 -73 -34 -134 -34 -135 0 -2 54 -3
119 -3 l119 0 32 135 32 135 131 0 132 0 23 98 c12 53 22 100 22 105 0 4 -54
7 -121 7 -129 0 -138 5 -85 44 25 19 44 21 198 24 160 3 169 2 164 -15 -11
-37 -126 -516 -126 -524 0 -5 53 -9 118 -9 l119 0 69 282 69 282 48 -112 c26
-61 47 -119 47 -130 0 -10 -16 -82 -35 -161 -19 -78 -35 -147 -35 -152 0 -6
45 -9 116 -7 l116 3 40 160 40 160 108 114 108 114 -54 -224 c-30 -123 -61
-247 -68 -276 l-14 -53 196 0 c290 0 359 16 443 102 64 66 102 161 163 405 31
122 56 229 56 238 0 13 -18 15 -115 15 l-114 0 -10 -37 c-6 -21 -30 -120 -54
-220 -25 -101 -53 -197 -64 -215 -31 -53 -77 -78 -144 -78 -33 0 -59 4 -59 10
0 5 27 119 60 252 33 134 62 253 65 266 l5 22 -192 -1 -193 -1 -93 -104 c-52
-57 -97 -102 -100 -100 -4 2 -25 50 -47 105 l-40 101 -260 -2 c-143 0 -323 -4
-400 -8z"/>
</g>
</svg>
