<?xml version="1.0" standalone="no"?>
<!DOCTYPE svg PUBLIC "-//W3C//DTD SVG 20010904//EN"
 "http://www.w3.org/TR/2001/REC-SVG-20010904/DTD/svg10.dtd">
<svg version="1.0" xmlns="http://www.w3.org/2000/svg"
 width="192.000000pt" height="192.000000pt" viewBox="0 0 192.000000 192.000000"
 preserveAspectRatio="xMidYMid meet">
<metadata>
Created by potrace 1.14, written by Peter Selinger 2001-2017
</metadata>
<g transform="translate(0.000000,192.000000) scale(0.100000,-0.100000)"
fill="#000000" stroke="none">
<path d="M659 1890 c-87 -31 -218 -99 -269 -138 -65 -50 -176 -167 -216 -227
-35 -52 -89 -155 -116 -220 -4 -11 -18 -56 -29 -100 -24 -88 -34 -295 -19
-375 4 -25 11 -62 14 -84 4 -21 10 -43 13 -50 4 -6 8 -13 8 -16 7 -56 101
-238 160 -307 5 -7 26 -33 45 -57 19 -25 38 -45 41 -45 4 -1 24 -17 45 -37 46
-42 174 -127 192 -127 6 0 12 -3 12 -7 0 -5 54 -29 80 -35 3 -1 17 -7 33 -13
107 -45 345 -63 472 -37 113 24 116 25 195 57 77 33 202 104 208 119 2 5 8 9
14 9 16 0 161 150 194 201 16 24 31 46 34 49 13 12 80 150 73 150 -4 0 -3 4 4
8 7 4 24 52 39 107 23 84 27 123 29 248 1 81 -2 150 -6 153 -5 3 -7 9 -5 13 3
4 -2 32 -10 62 -8 30 -17 65 -20 78 -3 13 -14 42 -24 64 -11 23 -20 47 -20 54
0 7 -4 13 -10 13 -5 0 -9 3 -8 8 3 12 -24 62 -34 62 -4 0 -8 5 -8 11 0 15 -63
103 -109 153 -63 68 -175 151 -269 199 -50 26 -95 48 -99 49 -11 1 -32 8 -76
23 -29 11 -96 14 -260 13 -216 0 -224 -1 -298 -28z"/>
</g>
</svg>
